<?xml version="1.0" encoding="UTF-8" standalone="no"?>
<!-- Created with Inkscape (http://www.inkscape.org/) -->

<svg
   width="512"
   height="512"
   viewBox="0 0 512 512"
   version="1.1"
   id="svg1"
   inkscape:version="1.3.2 (091e20e, 2023-11-25, custom)"
   sodipodi:docname="boot.svg"
   inkscape:export-filename="boot.png"
   inkscape:export-xdpi="96"
   inkscape:export-ydpi="96"
   xmlns:inkscape="http://www.inkscape.org/namespaces/inkscape"
   xmlns:sodipodi="http://sodipodi.sourceforge.net/DTD/sodipodi-0.dtd"
   xmlns="http://www.w3.org/2000/svg"
   xmlns:svg="http://www.w3.org/2000/svg">
  <sodipodi:namedview
     id="namedview1"
     pagecolor="#ffffff"
     bordercolor="#ffffff"
     borderopacity="1"
     inkscape:showpageshadow="0"
     inkscape:pageopacity="0"
     inkscape:pagecheckerboard="1"
     inkscape:deskcolor="#505050"
     inkscape:document-units="px"
     inkscape:zoom="1.5878906"
     inkscape:cx="145.47601"
     inkscape:cy="254.74047"
     inkscape:window-width="1920"
     inkscape:window-height="1009"
     inkscape:window-x="-8"
     inkscape:window-y="-8"
     inkscape:window-maximized="1"
     inkscape:current-layer="layer1"
     inkscape:export-bgcolor="#ffffffff" />
  <defs
     id="defs1" />
  <g
     inkscape:label="Ebene 1"
     inkscape:groupmode="layer"
     id="layer1">
    <path
       style="fill:#000080;stroke:#0000ff;stroke-width:1.01131;stroke-linecap:round;stroke-linejoin:round;stroke-dasharray:none;stroke-opacity:1"
       d="m 3.1544883,418.15917 c 0,0 6.9512547,-2.80243 10.1851317,-3.33584 22.126262,-3.64965 32.068955,-62.7204 59.38907,-62.77832 27.50358,-0.0583 25.32637,63.28305 56.25262,62.81918 30.92624,-0.46387 40.95183,-61.27929 72.97719,-61.08132 29.66666,0.18337 25.78503,61.29905 57.76846,63.11514 31.98341,1.81609 35.06816,-63.60326 68.26065,-62.93009 31.09882,0.63072 27.148,60.38558 55.86863,61.40848 15.31602,0.5455 36.44418,-63.31165 64.44374,-63.33923 28.72897,-0.0283 36.32024,63.28222 60.09411,62.28052"
       id="path1"
       sodipodi:nodetypes="csszszsssc" />
    <circle
       id="path2"
       style="fill:#000000;stroke:#0000ff"
       cx="116.50677"
       cy="342.59286"
       r="0.31456828" />
    <path
       style="fill:#a05a2c;stroke:#2b1100;stroke-width:1;stroke-linecap:round;stroke-linejoin:round;stroke-dasharray:none"
       id="path3"
       d="m 127.51123,347.46668 c 16.40492,-0.25052 32.71023,1.67512 48.91939,3.97698 9.18239,1.51422 18.36508,2.98161 27.64088,3.77233 5.14837,0.3742 10.31363,0.44219 15.47371,0.45275 4.87055,-0.0969 9.74328,0.019 14.61329,-0.0716 4.69589,-0.18384 9.37118,-0.65925 14.0638,-0.90625 5.93594,-0.28371 11.87863,-0.36112 17.82015,-0.42272 7.1492,-0.12489 14.29429,0.0913 21.43655,0.38271 4.39108,0.25909 8.78858,0.30519 13.18549,0.35846 2.80274,-0.09 5.77501,0.22277 8.56207,0.0452 0.70672,-0.045 1.40669,-0.16461 2.11004,-0.24692 0.88448,-0.21273 1.77452,-0.40353 2.65344,-0.63819 3.46995,-0.92642 6.85893,-2.08352 10.36372,-2.88868 4.0226,-0.92412 4.90608,-0.99341 9.04846,-1.65947 7.84753,-1.29379 15.74926,-2.22862 23.69672,-2.55615 4.62453,-0.0608 9.2297,0.4138 13.83021,0.81552 1.76111,0.16386 3.5262,0.27231 5.29418,0.3175 9.72749,-0.54216 14.20979,-7.79799 18.5081,-14.51699 5.2297,-8.17492 -0.55977,0.74867 5.28314,-8.21456 6.40452,-9.20831 12.86286,-18.41548 20.0021,-27.07483 3.21406,-3.64403 6.48481,-7.25374 9.97642,-10.63544 2.35567,-2.34962 4.44946,-4.91307 6.07251,-7.81963 0.1863,-0.60642 0.53834,-1.39887 0.37413,-2.0777 -0.4879,-2.01689 -3.6866,-2.43845 -5.15116,-2.82696 -1.67264,-0.4437 -3.3592,-0.83309 -5.0388,-1.24964 -16.34683,-4.59602 -33.30252,-6.16425 -50.16933,-7.45303 -15.4677,-1.02224 -30.90214,-2.4521 -46.35918,-3.61197 -11.13373,-0.78712 -22.23816,-1.91889 -33.34975,-2.96057 -11.86594,-1.15081 -23.75841,-1.99505 -35.64048,-2.96075 -13.1201,-1.43672 -26.13741,-4.04109 -39.37582,-4.22321 -2.54761,-0.0351 -5.09441,0.11513 -7.64161,0.1727 -11.17917,0.89404 -22.30083,2.39038 -33.43156,3.74566 -10.45658,1.44208 -21.0211,1.65824 -31.54765,2.20795 -10.25188,1.37276 -20.33677,3.73128 -30.63431,4.78611 -5.62313,0.57601 -9.25186,0.65695 -14.82087,0.89828 -7.936131,0.27129 -15.874695,0.0669 -23.812331,0.0376 -6.010576,0.35935 -3.250454,0.0236 -14.278164,7.71058 -0.362145,0.25244 0.194874,0.86357 0.346067,1.27832 0.465511,1.27698 1.394291,2.3785 2.132803,3.50186 3.63287,4.5676 7.269891,9.13277 10.916629,13.68963 2.12698,2.69816 4.226176,5.44492 6.740668,7.80186 0.503401,0.47186 2.195932,1.90436 2.744659,2.37208 3.04197,2.85935 5.835661,5.96625 8.686638,9.01269 4.985681,5.34238 9.259361,11.28951 13.405591,17.29092 2.47709,3.60656 5.15102,7.07961 7.89827,10.48423 2.44867,3.02648 4.88552,6.06136 7.37284,9.05637 1.48631,1.84284 3.20814,3.50372 4.5662,5.44802 0.56085,0.76579 0.26505,0.40192 0.88505,1.09351 0,0 12.64696,-7.74052 12.64696,-7.74052 v 0 c -0.55977,-0.49716 -0.28,-0.21269 -0.82203,-0.87008 -1.45585,-1.93591 -3.27858,-3.57154 -4.84229,-5.41926 -2.5731,-2.91187 -4.99095,-5.95335 -7.43962,-8.96964 -2.75182,-3.38581 -5.35888,-6.88699 -8.13071,-10.25644 -4.43028,-5.84261 -8.69981,-11.81009 -13.37836,-17.46063 -2.682,-3.2668 -5.52912,-6.3912 -8.55174,-9.34796 -0.914378,-0.76454 -1.864906,-1.48536 -2.774046,-2.25612 -2.601947,-2.20589 -4.813371,-4.81899 -6.978225,-7.44152 -3.668773,-4.44614 -7.070351,-9.09319 -10.350596,-13.83193 -0.131594,-0.21378 -1.208271,-1.94023 -1.368605,-2.27839 -0.10578,-0.2231 -0.227264,-0.45933 -0.223483,-0.70621 0.0013,-0.0837 0.308705,-0.12798 0.235633,-0.0871 -12.456992,6.97119 -16.779342,8.19311 -11.114389,6.47404 8.33119,-0.61899 16.688156,-0.4793 25.028885,-0.90758 7.815286,-0.4439 15.664316,-0.85759 23.424476,-1.94235 5.01769,-0.7014 9.97506,-1.79019 14.98612,-2.53751 2.19603,-0.32751 4.40294,-0.57739 6.60441,-0.86608 10.44059,-0.69146 20.91895,-0.83345 31.32953,-1.93028 11.39163,-1.52722 22.72831,-3.51968 34.19045,-4.47072 2.53395,-0.0851 5.06647,-0.25725 7.60185,-0.25534 13.1687,0.01 26.15565,2.42885 39.13968,4.31591 11.73922,1.17606 23.50959,2.00825 35.2442,3.23273 11.23561,1.12656 22.49599,1.9374 33.7611,2.71001 15.62865,1.02974 31.24201,2.25788 46.8738,3.24014 16.53863,1.14133 33.25562,2.56192 49.06679,7.89374 1.51532,0.50601 3.03853,0.98897 4.54595,1.51804 0.87931,0.30862 1.7388,0.67124 2.61283,0.99451 0.34766,0.12859 1.00631,0.10711 1.00417,0.47778 -0.003,0.47883 -0.31591,1.03432 -0.48961,1.43181 -1.68393,2.76999 -3.84159,5.17764 -6.15214,7.44333 -3.2564,3.35544 -6.29854,6.91294 -9.27853,10.514 -2.89246,3.7418 -5.57266,7.60971 -8.33625,11.4473 -2.54616,3.53565 -5.31608,7.2676 -7.90006,10.76958 -1.14981,1.59393 -2.25965,3.21633 -3.38947,4.82449 -2.61059,3.8458 -5.09325,7.85592 -7.93018,11.54315 -0.67147,0.87271 -3.15802,2.91799 -2.12912,2.52573 8.54713,-3.25852 14.27703,-9.1089 10.61313,-5.43342 -1.81322,0.002 -3.62656,-0.0211 -5.43779,-0.11376 -4.78464,-0.2348 -9.56585,-0.57874 -14.35823,-0.61354 -8.08629,0.2251 -16.10727,1.39882 -24.09074,2.64992 -3.95426,0.55473 -5.08502,0.65208 -8.93126,1.42315 -4.24238,0.85049 -8.33151,2.23558 -12.51962,3.30196 -0.63165,0.11903 -1.25558,0.29121 -1.89497,0.3571 -0.55001,0.0567 -1.10583,0.008 -1.65876,0.009 -2.32536,0.003 -4.65084,-0.0137 -6.97616,0.0105 -4.4794,-0.003 -8.95824,-0.079 -13.43722,-0.13446 -7.18373,-0.14236 -14.36512,-0.45301 -21.55177,-0.35837 -5.88265,-0.0152 -11.7699,-0.0796 -17.64755,0.21137 -4.64552,0.24513 -9.28648,0.54491 -13.92931,0.83383 -4.86762,0.27755 -9.7478,0.12016 -14.62105,0.14425 -5.22169,0.0134 -10.44588,0.0629 -15.66363,-0.19362 -9.56887,-0.52009 -19.07246,-1.71852 -28.56404,-3.01571 -15.98384,-1.91371 -31.99451,-3.54801 -48.04961,-4.74025 z" />
    <path
       style="fill:#2b1100;stroke:#2b1100;stroke-width:1;stroke-linecap:round;stroke-linejoin:round;stroke-dasharray:none"
       id="path4"
       d="m 260.49075,252.90117 c 0.0118,-0.78658 -0.0168,-1.57479 0.0353,-2.35973 0.36852,-5.55133 1.35124,-11.11132 2.19017,-16.59933 1.77309,-11.59884 1.36095,-8.8383 3.48973,-21.21861 3.02856,-15.8874 5.6306,-31.85674 8.82574,-47.71257 1.34165,-6.65792 2.61903,-12.2892 4.07961,-18.88622 2.72634,-10.96749 5.83899,-21.8305 8.55451,-32.80111 0.99998,-4.5529 2.39312,-8.99743 3.65025,-13.481614 0.13582,-0.526114 0.27163,-1.052229 0.40744,-1.578343 0,0 -13.11557,6.291807 -13.11557,6.291807 v 0 c -0.11587,0.50473 -0.23173,1.00945 -0.3476,1.51418 -1.13348,4.45077 -2.52168,8.84002 -3.28852,13.37853 -2.07305,10.75605 -4.61448,21.40165 -7.03441,32.08396 -1.40771,7.2241 -2.23289,11.29351 -3.52775,18.65375 -2.79581,15.89194 -5.37805,31.82676 -8.6723,47.62709 -2.86745,13.88109 -5.97642,27.71718 -8.48586,41.66855 z" />
    <path
       style="fill:#008000;stroke:#2b1100;stroke-width:1;stroke-linecap:round;stroke-linejoin:round;stroke-dasharray:none"
       id="path5"
       d="m 341.79353,49.801032 c -4.36195,-0.890569 -8.83851,-0.771732 -13.25672,-0.519664 -8.80718,0.86613 -17.21436,3.856771 -25.50083,6.790247 -8.73353,3.199642 -17.5132,6.293499 -26.14348,9.767903 -7.44206,2.996046 -14.74855,6.304656 -22.02784,9.670945 -13.6507,6.410959 -26.82135,13.772371 -39.58497,21.806099 -1.70362,1.072303 -3.23109,2.401824 -4.84663,3.602738 -6.85836,5.57418 -12.92862,12.08288 -18.02092,19.30691 -0.83436,1.18363 -1.59561,2.41714 -2.39342,3.62571 -3.61951,5.38981 -6.76446,11.11802 -8.91424,17.25259 -1.17689,3.76253 -1.19852,7.69916 -1.19056,11.59949 0.28103,7.07871 1.40109,14.07962 2.94591,20.98229 1.31803,4.23698 3.2575,8.24547 6.00165,11.74794 1.52093,1.94121 3.11934,3.52272 4.82125,5.30194 4.7992,5.13862 10.59747,9.07368 16.52404,12.77514 1.16218,0.67723 2.32155,1.35931 3.48655,2.03168 1.10818,0.63958 2.19755,1.31416 3.33291,1.90414 4.3503,2.26061 9.00759,3.83879 13.67152,5.30284 3.30847,1.03927 6.76167,1.603 10.04064,2.73679 0,0 12.19806,-8.20795 12.19806,-8.20795 v 0 c -1.28372,-0.51686 -2.56752,-0.73571 -3.91744,-1.04375 -2.22096,-0.50679 -4.44948,-0.97285 -6.6759,-1.45559 -3.45018,-0.91197 -6.83826,-1.90285 -10.13601,-3.28958 -2.92755,-1.23105 -4.13604,-1.92816 -6.88818,-3.49071 -1.15332,-0.65481 -2.29291,-1.33352 -3.43937,-2.00029 -5.76146,-3.70273 -11.41155,-7.6691 -16.26105,-12.53639 -1.7152,-1.81173 -3.11329,-3.19267 -4.63311,-5.1687 -2.59264,-3.37087 -4.52009,-7.19604 -5.80822,-11.24128 -1.64272,-6.83807 -2.71817,-13.81657 -2.41892,-20.87361 0.098,-3.75512 0.19392,-7.54881 1.3472,-11.16181 2.03165,-5.94457 5.05553,-11.46711 8.53401,-16.68914 0.78736,-1.17592 1.54302,-2.3737 2.36209,-3.52777 5.01439,-7.0653 10.95399,-13.43704 17.78589,-18.778786 1.61217,-1.166463 6.7952,-3.148453 4.83649,-3.49939 -2.27301,-0.407251 -3.87008,2.695849 -6.10629,3.271882 -1.98048,0.510159 3.52395,-2.07756 5.31344,-3.06765 2.01378,-1.11418 9.60438,-5.064797 11.51387,-6.026863 2.13169,-1.074015 4.28478,-2.105012 6.42717,-3.157518 7.39423,-3.513013 14.82205,-6.968176 22.39947,-10.074189 8.45039,-3.463851 17.07044,-6.500852 25.69689,-9.489977 7.94977,-2.547909 15.96795,-5.241255 24.2793,-6.306991 4.14949,-0.309366 8.36597,-0.449811 12.44381,0.546739 z" />
  </g>
</svg>
